:FULLY-SPECIFIED
:DEGREES
204
root -0.567874014377594 -0.567874014377594 -0.567874014377594 -0.5678755879732001 -0.5678755879732001 -0.5678755879732001
lhipjoint -9.671654586443837e-08 -1.5341245206083327e-07 1.0672170578144923e-06
lfemur -16.308113124611992 -3.9352809384209 -14.133681421203413
ltibia 20.090755556782387 -1.1554433037900448e-06 -5.048336181486091e-07
lfoot -17.572656055095447 1.583263021770571e-06 13.983243089639297
ltoes -52.84933319359319 -6.125168692213584e-07 4.965646848655529e-07
rhipjoint 1.1005675908711953e-07 6.870210827458292e-07 -1.494104084495789e-06
rfemur -6.864382377658305 5.010968711466678 10.989454209433172
rtibia 0.5289298493257875 3.206005480024588e-08 -2.5561027935221855e-06
rfoot -15.594506912960108 1.768149835848168e-06 -15.596385214981861
rtoes -2.3249963934723406 -1.7191427297609305e-07 -2.624398309864065e-07
lowerback 22.266768448983825 0.631505576920186 -1.0724354290620879
upperback 1.1621835811475265 0.6696727273630702 1.2155144452389266
thorax -11.373994713478536 0.412693663350084 1.767338981940891
lowerneck -11.457395592112624 -2.029057957114028 -1.9248847656666397
upperneck 23.5797988923852 -3.0151462414105206 2.3060364286666197
head 9.370881229926802 -1.331763944747426 0.7745436119620046
lclavicle -1.4085775951116125e-07 5.4855408257763046e-08 -1.0938974842598547e-06
lhumerus 5.359101319028112 30.638684993924777 13.28352692143828
lradius 26.75999985674025 -9.624083666184124e-07 2.204752362970525e-06
lwrist -1.5957290659001613e-06 -57.25361334024125 3.8476946003398293e-07
lhand -4.562975323145072 2.6246558075710764e-07 -26.656099019086014
lfingers 7.125022823272814 9.845282338726802e-08 3.18924141240953e-07
lthumb 21.213298854421275 -1.2803152392500461e-07 2.20318914769186
rclavicle 1.398304276268298e-07 4.3880174074018323e-07 -1.3740421654916584e-06
rhumerus 3.3125057840030188 -28.132485389319292 -10.149402413224134
rradius 33.89955390747227 -1.1061845013275346e-06 -3.929555869397962e-06
rwrist 4.246224208592196e-07 42.07224066451312 9.4921104935646e-07
rhand -6.972260092956778 2.0321462048512455e-07 -36.68780446630613
rfingers 7.125022396385991 5.1024341088409163e-08 -3.1892353057445414e-07
rthumb 18.897492480477187 1.5447771905696147e-06 -65.78980959509936
205
root -0.567874014377594 -0.567874014377594 -0.567874014377594 -0.5678755879732001 -0.5678755879732001 -0.5678755879732001
lhipjoint -9.671654586443837e-08 -1.5341245206083327e-07 1.0672170578144923e-06
lfemur -16.434652624270235 -3.818430062100322 -14.329202416384199
ltibia 20.29217612785877 -1.299773313013616e-06 1.2348665886293046e-06
lfoot -17.685410525461307 1.3616438035656898e-07 13.729662925192464
ltoes -53.07333607761293 -1.4572249168532832e-06 9.313217778284126e-07
rhipjoint 1.1005675908711953e-07 6.870210827458292e-07 -1.494104084495789e-06
rfemur -6.581544244128076 4.820734282703483 10.980632166346455
rtibia 0.08026839646620307 5.419892586873557e-09 -1.7067671660509183e-06
rfoot -15.647907039438559 4.787314928776492e-08 -15.586235553875222
rtoes -1.9184225529381613 -1.4023620279309093e-07 -1.6629390207626013e-07
lowerback 22.128503222067962 0.6230500695319747 -0.9322528399801577
upperback 0.9718127620443426 0.7145473370143184 1.3189236159946254
thorax -11.512579251738094 0.4340038802409502 1.7933212349870309
lowerneck -11.457395592112624 -2.029057957114028 -1.9248847656666397
upperneck 23.5797988923852 -3.0151462414105206 2.3060364286666197
head 9.370881229926802 -1.331763944747426 0.7745436119620046
lclavicle -1.4085775951116125e-07 5.4855408257763046e-08 -1.0938974842598547e-06
lhumerus -3.121534335139697 27.42950865956324 9.232462323754616
lradius 27.89300871173489 -8.750484528492156e-08 2.5883099553375584e-06
lwrist -1.4896298328365307e-06 -55.799732443323165 3.591897599527815e-07
lhand -4.562975323145072 2.6246558075710764e-07 -26.656099019086014
lfingers 7.125022823272814 9.845282338726802e-08 3.18924141240953e-07
lthumb 21.213298854421275 -1.2803152392500461e-07 2.20318914769186
rclavicle 1.398304276268298e-07 4.3880174074018323e-07 -1.3740421654916584e-06
rhumerus -4.579724654537236 -25.900384691201 -7.115403355600497
rradius 34.66962700053994 -2.591986167660581e-07 -3.846434388241721e-06
rwrist 4.072831054022535e-07 41.074479800368486 9.104511306752737e-07
rhand -6.972260092956778 2.0321462048512455e-07 -36.68780446630613
rfingers 7.125022396385991 5.1024341088409163e-08 -3.1892353057445414e-07
rthumb 18.897492480477187 1.5447771905696147e-06 -65.78980959509936
206
root -0.567874014377594 -0.567874014377594 -0.567874014377594 -0.5678755879732001 -0.5678755879732001 -0.5678755879732001
lhipjoint -9.671654586443837e-08 -1.5341245206083327e-07 1.0672170578144923e-06
lfemur -16.522774017394447 -3.641746301763609 -14.599269803713796
ltibia 20.427456562107334 -1.0292311589205871e-06 -4.7658611968947096e-07
lfoot -17.79145262742034 -2.981416336191468e-08 13.540371062534732
ltoes -53.34592892738814 -1.0173128826404572e-06 1.7977490446024907e-06
rhipjoint 1.1005675908711953e-07 6.870210827458292e-07 -1.494104084495789e-06
rfemur -6.172715587394147 4.739918630670245 10.94268448909151
rtibia -0.72158221841602 -2.048203425993895e-08 -8.606692923565064e-07
rfoot -15.53151890843425 -3.4851444444216757e-07 -15.722538808951997
rtoes -1.6037007761971966 -9.707025407834205e-07 -1.3317096951256279e-07
lowerback 22.247106041910648 0.6297161207184956 -0.8108665046072796
upperback 0.8465199853530403 0.7702404860631908 1.3982356659151076
thorax -11.728756446516291 0.4598083349252584 1.8013533240075543
lowerneck -11.457395592112624 -2.029057957114028 -1.9248847656666397
upperneck 23.5797988923852 -3.0151462414105206 2.3060364286666197
head 9.370881229926802 -1.331763944747426 0.7745436119620046
lclavicle -1.4085775951116125e-07 5.4855408257763046e-08 -1.0938974842598547e-06
lhumerus -10.640167726788828 23.586381487197798 6.5014111841250175
lradius 28.904940510860005 8.918670224492952e-07 2.5428250718378854e-06
lwrist -1.3981215597629575e-06 -54.43088740157174 3.3712205379528953e-07
lhand -4.562975323145072 2.6246558075710764e-07 -26.656099019086014
lfingers 7.125022823272814 9.845282338726802e-08 3.18924141240953e-07
lthumb 21.213298854421275 -1.2803152392500461e-07 2.20318914769186
rclavicle 1.398304276268298e-07 4.3880174074018323e-07 -1.3740421654916584e-06
rhumerus -12.116087082837605 -22.81613593185358 -5.163839871035788
rradius 35.52177506176907 -1.2713099439471376e-07 -4.468559026155969e-06
rwrist 3.782612309337101e-07 39.30579206950993 8.455740745050311e-07
rhand -6.972260092956778 2.0321462048512455e-07 -36.68780446630613
rfingers 7.125022396385991 5.1024341088409163e-08 -3.1892353057445414e-07
rthumb 18.897492480477187 1.5447771905696147e-06 -65.78980959509936
207
root -0.567874014377594 -0.567874014377594 -0.567874014377594 -0.5678755879732001 -0.5678755879732001 -0.5678755879732001
lhipjoint -9.671654586443837e-08 -1.5341245206083327e-07 1.0672170578144923e-06
lfemur -16.402383395536507 -3.4619215081823365 -14.890042909512285
ltibia 20.29291378828913 -1.360624194068125e-06 3.4287214043725125e-07
lfoot -17.840949300788132 -2.1900414070134458e-07 13.485265950084715
ltoes -53.57492126459657 -1.432826856447339e-06 2.023812693585937e-06
rhipjoint 1.1005675908711953e-07 6.870210827458292e-07 -1.494104084495789e-06
rfemur -5.453196566355147 4.806335390159449 10.865283077869632
rtibia -2.1584629345725013 -9.512927096732591e-08 -1.9121698300458277e-08
rfoot -15.136334408341067 3.5940324896077633e-06 -16.058256267036462
rtoes -1.3458066002375608 -9.5165056024158e-07 -1.1396517734632661e-07
lowerback 22.525496014743908 0.640712778643069 -0.7006956066558268
upperback 0.7783956785713332 0.8232836817966569 1.4502680470122649
thorax -11.975476539715492 0.48277143091484126 1.784168674777508
lowerneck -11.457395592112624 -2.029057957114028 -1.9248847656666397
upperneck 23.5797988923852 -3.0151462414105206 2.3060364286666197
head 9.370881229926802 -1.331763944747426 0.7745436119620046
lclavicle -1.4085775951116125e-07 5.4855408257763046e-08 -1.0938974842598547e-06
lhumerus -16.90349046927825 19.510273147148634 5.093106858877959
lradius 29.28788189686594 -8.090744869804299e-07 2.1607766399449883e-06
lwrist -1.3581781694070174e-06 -53.79614084652953 3.274901892201327e-07
lhand -4.562975323145072 2.6246558075710764e-07 -26.656099019086014
lfingers 7.125022823272814 9.845282338726802e-08 3.18924141240953e-07
lthumb 21.213298854421275 -1.2803152392500461e-07 2.20318914769186
rclavicle 1.398304276268298e-07 4.3880174074018323e-07 -1.3740421654916584e-06
rhumerus -18.973823259546663 -18.970681372528457 -4.399596771311544
rradius 36.121346142585715 -1.261665484375442e-07 -4.6054509138681574e-06
rwrist 3.46047580786787e-07 37.184598275587014 7.735651460725743e-07
rhand -6.972260092956778 2.0321462048512455e-07 -36.68780446630613
rfingers 7.125022396385991 5.1024341088409163e-08 -3.1892353057445414e-07
rthumb 18.897492480477187 1.5447771905696147e-06 -65.78980959509936
